<svg xmlns="http://www.w3.org/2000/svg" xmlns:xlink="http://www.w3.org/1999/xlink" width="500" zoomAndPan="magnify" viewBox="0 0 375 374.999991" height="500" preserveAspectRatio="xMidYMid meet" version="1.0"><defs><g/><clipPath id="aca44e00a8"><path d="M 79.113281 79.113281 L 295.886719 79.113281 L 295.886719 295.886719 L 79.113281 295.886719 Z M 79.113281 79.113281 " clip-rule="nonzero"/></clipPath><clipPath id="0b05eb9702"><path d="M 187.5 79.113281 C 127.46875 79.113281 79.113281 127.46875 79.113281 187.5 C 79.113281 247.53125 127.46875 295.886719 187.5 295.886719 C 246.972656 295.886719 295.886719 247.53125 295.886719 187.5 C 295.886719 127.46875 246.972656 79.113281 187.5 79.113281 Z M 187.5 279.214844 C 136.917969 279.214844 95.785156 238.082031 95.785156 187.5 C 95.785156 136.917969 136.917969 95.785156 187.5 95.785156 C 238.082031 95.785156 279.214844 136.917969 279.214844 187.5 C 279.214844 238.082031 238.082031 279.214844 187.5 279.214844 Z M 187.5 279.214844 " clip-rule="nonzero"/></clipPath><clipPath id="2e7cff9b02"><path d="M 95.785156 95.785156 L 279.214844 95.785156 L 279.214844 279.214844 L 95.785156 279.214844 Z M 95.785156 95.785156 " clip-rule="nonzero"/></clipPath><clipPath id="8e4aca0bf2"><path d="M 187.5 95.785156 C 136.917969 95.785156 95.785156 136.917969 95.785156 187.5 C 95.785156 238.082031 136.917969 279.214844 187.5 279.214844 C 238.082031 279.214844 279.214844 238.082031 279.214844 187.5 C 279.214844 136.917969 238.082031 95.785156 187.5 95.785156 Z M 187.5 95.785156 " clip-rule="nonzero"/></clipPath><clipPath id="f249ec3991"><path d="M 157 158 L 217 158 L 217 216.773438 L 157 216.773438 Z M 157 158 " clip-rule="nonzero"/></clipPath><clipPath id="790ed3c9b3"><path d="M 166 158 L 208 158 L 208 216.773438 L 166 216.773438 Z M 166 158 " clip-rule="nonzero"/></clipPath><clipPath id="1ef6c50773"><path d="M 174 120.773438 L 202 120.773438 L 202 139 L 174 139 Z M 174 120.773438 " clip-rule="nonzero"/></clipPath></defs><rect x="-37.5" width="450" fill="#ffffff" y="-37.499999" height="449.999989" fill-opacity="1"/><rect x="-37.5" width="450" fill="#ffffff" y="-37.499999" height="449.999989" fill-opacity="1"/><rect x="-37.5" width="450" fill="#ffffff" y="-37.499999" height="449.999989" fill-opacity="1"/><g clip-path="url(#aca44e00a8)"><g clip-path="url(#0b05eb9702)"><path fill="#ff7300" d="M 79.113281 79.113281 L 295.886719 79.113281 L 295.886719 295.886719 L 79.113281 295.886719 Z M 79.113281 79.113281 " fill-opacity="1" fill-rule="nonzero"/></g></g><g clip-path="url(#2e7cff9b02)"><g clip-path="url(#8e4aca0bf2)"><path fill="#ffffff" d="M 79.113281 79.113281 L 295.886719 79.113281 L 295.886719 295.886719 L 79.113281 295.886719 Z M 79.113281 79.113281 " fill-opacity="1" fill-rule="nonzero"/></g></g><path fill="#ff7300" d="M 135.1875 145.710938 C 140.207031 139.332031 150.289062 122.832031 158.914062 125.964844 C 158.921875 125.96875 158.929688 125.972656 158.9375 125.972656 C 158.941406 125.976562 158.949219 125.980469 158.957031 125.980469 C 160.4375 126.480469 160.535156 126.359375 163.976562 128.261719 C 166.390625 129.589844 167.265625 132.628906 165.941406 135.046875 C 164.613281 137.464844 161.691406 138.132812 159.175781 137.015625 C 155.117188 135.210938 155.429688 134.117188 155.644531 131.324219 C 147.503906 135.074219 150.601562 142.910156 146.082031 152.191406 C 149.207031 151.742188 153.148438 151.703125 156.820312 154.652344 C 159.300781 156.648438 161.257812 159.992188 160.941406 162.371094 C 163.855469 160.648438 167.527344 160.8125 172.671875 164.226562 C 173.558594 164.816406 174.898438 165.351562 176.195312 165.929688 L 164.019531 188.109375 C 163.355469 187.863281 165.019531 194.175781 164.375 193.816406 C 160.628906 191.75 155.820312 181.671875 154.875 177.8125 C 151.976562 177.59375 148.199219 175.898438 144.308594 173.265625 C 135.945312 167.609375 134.953125 160.515625 134.480469 160.214844 C 128.25 156.316406 130.160156 152.101562 135.1875 145.710938 " fill-opacity="1" fill-rule="nonzero"/><path fill="#ff7300" d="M 239.058594 145.710938 C 234.039062 139.332031 223.957031 122.832031 215.332031 125.964844 C 215.324219 125.96875 215.316406 125.972656 215.308594 125.972656 C 215.304688 125.976562 215.296875 125.980469 215.289062 125.980469 C 213.808594 126.480469 213.710938 126.359375 210.265625 128.261719 C 207.855469 129.589844 206.976562 132.628906 208.304688 135.046875 C 209.632812 137.464844 212.554688 138.132812 215.070312 137.015625 C 219.125 135.210938 218.816406 134.117188 218.601562 131.324219 C 226.742188 135.074219 223.644531 142.910156 228.164062 152.191406 C 225.039062 151.742188 221.097656 151.703125 217.425781 154.652344 C 214.949219 156.648438 212.988281 159.992188 213.300781 162.371094 C 210.390625 160.648438 206.71875 160.8125 201.574219 164.226562 C 200.683594 164.816406 199.347656 165.351562 198.050781 165.929688 L 210.226562 188.109375 C 210.890625 187.863281 209.234375 194.175781 209.875 193.820312 C 213.621094 191.75 218.421875 181.671875 219.367188 177.8125 C 222.269531 177.59375 226.046875 175.898438 229.9375 173.265625 C 238.296875 167.609375 239.292969 160.515625 239.769531 160.214844 C 245.992188 156.316406 244.085938 152.101562 239.058594 145.710938 " fill-opacity="1" fill-rule="nonzero"/><g clip-path="url(#f249ec3991)"><path fill="#ff7300" d="M 216.261719 180.292969 C 216.261719 168.328125 203.214844 158.632812 187.121094 158.632812 C 171.03125 158.632812 157.988281 168.328125 157.988281 180.292969 C 157.988281 185.410156 160.382812 190.109375 164.375 193.816406 L 164.371094 193.820312 C 164.371094 193.820312 169.332031 198.921875 169.332031 216.792969 L 204.914062 216.792969 C 204.914062 198.921875 209.875 193.820312 209.875 193.820312 L 209.871094 193.816406 C 213.863281 190.109375 216.261719 185.410156 216.261719 180.292969 " fill-opacity="1" fill-rule="nonzero"/></g><g clip-path="url(#790ed3c9b3)"><path fill="#ff7300" d="M 199.445312 169.542969 C 199.445312 166.527344 199.644531 163.617188 200.011719 160.863281 C 196.125 159.4375 191.75 158.632812 187.121094 158.632812 C 182.496094 158.632812 178.121094 159.4375 174.234375 160.863281 C 174.601562 163.617188 174.800781 166.527344 174.800781 169.542969 C 174.800781 182.175781 171.351562 193.003906 166.453125 197.546875 C 167.8125 200.914062 169.332031 206.890625 169.332031 216.792969 L 204.914062 216.792969 C 204.914062 206.890625 206.433594 200.914062 207.792969 197.546875 C 202.894531 193.003906 199.445312 182.175781 199.445312 169.542969 " fill-opacity="1" fill-rule="nonzero"/></g><path fill="#ff7300" d="M 195.488281 155.925781 C 194.894531 152.710938 193.996094 149.949219 193.148438 148.492188 L 193.148438 147.28125 L 181.097656 147.28125 L 181.097656 148.492188 C 180.25 149.949219 179.351562 152.710938 178.757812 155.925781 C 178.207031 158.890625 178.046875 161.554688 178.238281 163.214844 C 178.429688 167.972656 182.332031 171.769531 187.121094 171.769531 C 191.914062 171.769531 195.816406 167.972656 196.003906 163.21875 C 196.199219 161.558594 196.039062 158.890625 195.488281 155.925781 " fill-opacity="1" fill-rule="nonzero"/><path fill="#ff7300" d="M 199.652344 141.566406 C 199.777344 139.480469 199.78125 138.023438 199.78125 138.023438 C 199.78125 128.671875 196.101562 126.371094 186.289062 126.371094 C 175.238281 126.371094 172.796875 128.671875 172.796875 138.023438 C 172.796875 138.023438 172.804688 139.480469 172.925781 141.566406 L 199.652344 141.566406 " fill-opacity="1" fill-rule="nonzero"/><path fill="#ff7300" d="M 177.253906 143.167969 C 177.253906 145.90625 175.535156 148.128906 173.414062 148.128906 C 171.296875 148.128906 172.480469 145.542969 171.425781 143.167969 C 170.144531 140.289062 171.296875 138.210938 173.414062 138.210938 C 175.535156 138.210938 177.253906 140.429688 177.253906 143.167969 " fill-opacity="1" fill-rule="nonzero"/><path fill="#ff7300" d="M 195.148438 142.691406 C 194.902344 145.410156 196.410156 147.878906 198.515625 148.191406 C 200.621094 148.511719 199.675781 145.765625 200.941406 143.566406 C 202.46875 140.902344 201.511719 138.660156 199.40625 138.34375 C 197.300781 138.023438 195.394531 139.972656 195.148438 142.691406 " fill-opacity="1" fill-rule="nonzero"/><path fill="#ff7300" d="M 186.289062 123.785156 C 176.335938 123.785156 174.144531 130.222656 174.144531 138.15625 C 174.144531 138.15625 174.199219 148.710938 176.691406 152.226562 C 178.328125 154.53125 183.742188 157.007812 186.289062 157.007812 C 188.835938 157.007812 194.25 154.53125 195.886719 152.226562 C 198.378906 148.710938 198.4375 138.15625 198.4375 138.15625 C 198.4375 130.222656 195.121094 123.785156 186.289062 123.785156 " fill-opacity="1" fill-rule="nonzero"/><g clip-path="url(#1ef6c50773)"><path fill="#ff7300" d="M 201.007812 126.570312 C 199.976562 126.871094 198.667969 127.167969 197.730469 126.671875 C 198.386719 124.878906 198.855469 122.6875 198.101562 120.796875 C 196.886719 121.691406 195.757812 122.390625 194.261719 122.988281 C 194.351562 122.488281 194.449219 121.792969 194.351562 121.292969 C 190.792969 123.683594 187.605469 123.386719 183.578125 124.082031 C 181.800781 124.28125 175.4375 126.296875 175.34375 128.886719 C 174.5625 130.039062 173.773438 132.574219 174.144531 138.15625 C 174.144531 138.15625 176.429688 133.070312 176.632812 128.296875 C 180.519531 127.234375 183.386719 128.398438 187.234375 129.757812 C 189.976562 130.691406 193.355469 131.351562 196.195312 130.625 C 196.835938 134.589844 198.441406 138.15625 198.441406 138.15625 C 198.71875 133.953125 198.339844 131.480469 197.800781 130.023438 C 199.128906 129.34375 200.25 128.25 201.007812 126.570312 " fill-opacity="1" fill-rule="nonzero"/></g><g fill="#ff7300" fill-opacity="1"><g transform="translate(136.603516, 238.922987)"><g><path d="M 8.578125 -9.84375 L 15.828125 -9.84375 L 15.828125 -0.78125 C 13.859375 -0.101562 11.691406 0.234375 9.328125 0.234375 C 6.734375 0.234375 4.726562 -0.515625 3.3125 -2.015625 C 1.90625 -3.523438 1.203125 -5.671875 1.203125 -8.453125 C 1.203125 -11.171875 1.972656 -13.285156 3.515625 -14.796875 C 5.066406 -16.304688 7.238281 -17.0625 10.03125 -17.0625 C 11.09375 -17.0625 12.09375 -16.960938 13.03125 -16.765625 C 13.96875 -16.566406 14.785156 -16.3125 15.484375 -16 L 14.046875 -12.4375 C 12.835938 -13.03125 11.507812 -13.328125 10.0625 -13.328125 C 8.726562 -13.328125 7.695312 -12.894531 6.96875 -12.03125 C 6.25 -11.175781 5.890625 -9.945312 5.890625 -8.34375 C 5.890625 -6.769531 6.21875 -5.570312 6.875 -4.75 C 7.53125 -3.925781 8.472656 -3.515625 9.703125 -3.515625 C 10.378906 -3.515625 11.003906 -3.578125 11.578125 -3.703125 L 11.578125 -6.34375 L 8.578125 -6.34375 Z M 8.578125 -9.84375 "/></g></g></g><g fill="#ff7300" fill-opacity="1"><g transform="translate(154.039505, 238.922987)"><g><path d="M 16.125 -16.828125 L 16.125 -6.703125 C 16.125 -4.492188 15.5 -2.785156 14.25 -1.578125 C 13 -0.367188 11.203125 0.234375 8.859375 0.234375 C 6.566406 0.234375 4.800781 -0.351562 3.5625 -1.53125 C 2.332031 -2.707031 1.71875 -4.394531 1.71875 -6.59375 L 1.71875 -16.828125 L 6.296875 -16.828125 L 6.296875 -6.953125 C 6.296875 -5.765625 6.515625 -4.898438 6.953125 -4.359375 C 7.398438 -3.828125 8.054688 -3.5625 8.921875 -3.5625 C 9.847656 -3.5625 10.519531 -3.828125 10.9375 -4.359375 C 11.363281 -4.890625 11.578125 -5.757812 11.578125 -6.96875 L 11.578125 -16.828125 Z M 16.125 -16.828125 "/></g></g></g><g fill="#ff7300" fill-opacity="1"><g transform="translate(171.866538, 238.922987)"><g><path d="M 1.8125 0 L 1.8125 -16.828125 L 6.390625 -16.828125 L 6.390625 0 Z M 1.8125 0 "/></g></g></g><g fill="#ff7300" fill-opacity="1"><g transform="translate(180.066973, 238.922987)"><g><path d="M 12.140625 0 L 11.3125 -3.15625 L 5.84375 -3.15625 L 5 0 L 0 0 L 5.484375 -16.890625 L 11.546875 -16.890625 L 17.109375 0 Z M 10.359375 -6.875 L 9.640625 -9.640625 C 9.472656 -10.253906 9.265625 -11.046875 9.015625 -12.015625 C 8.773438 -12.992188 8.617188 -13.691406 8.546875 -14.109375 C 8.472656 -13.722656 8.332031 -13.082031 8.125 -12.1875 C 7.925781 -11.289062 7.476562 -9.519531 6.78125 -6.875 Z M 10.359375 -6.875 "/></g></g></g><g fill="#ff7300" fill-opacity="1"><g transform="translate(197.169423, 238.922987)"><g/></g></g><g fill="#ff7300" fill-opacity="1"><g transform="translate(203.28812, 238.922987)"><g><path d="M 10.84375 0 L 6.21875 0 L 6.21875 -8.90625 C 6.21875 -9.988281 6.242188 -10.976562 6.296875 -11.875 C 6.015625 -11.53125 5.660156 -11.171875 5.234375 -10.796875 L 3.328125 -9.21875 L 0.96875 -12.109375 L 6.734375 -16.828125 L 10.84375 -16.828125 Z M 10.84375 0 "/></g></g></g><g fill="#ff7300" fill-opacity="1"><g transform="translate(217.089694, 238.922987)"><g><path d="M 0.984375 -1.90625 C 0.984375 -2.613281 1.191406 -3.160156 1.609375 -3.546875 C 2.035156 -3.929688 2.644531 -4.125 3.4375 -4.125 C 4.195312 -4.125 4.78125 -3.929688 5.1875 -3.546875 C 5.59375 -3.160156 5.796875 -2.613281 5.796875 -1.90625 C 5.796875 -1.21875 5.585938 -0.679688 5.171875 -0.296875 C 4.753906 0.0859375 4.175781 0.28125 3.4375 0.28125 C 2.675781 0.28125 2.078125 0.09375 1.640625 -0.28125 C 1.203125 -0.664062 0.984375 -1.207031 0.984375 -1.90625 Z M 0.984375 -1.90625 "/></g></g></g><g fill="#ff7300" fill-opacity="1"><g transform="translate(223.898471, 238.922987)"><g><path d="M 12.984375 -8.390625 C 12.984375 -5.410156 12.484375 -3.226562 11.484375 -1.84375 C 10.484375 -0.457031 8.957031 0.234375 6.90625 0.234375 C 4.894531 0.234375 3.378906 -0.488281 2.359375 -1.9375 C 1.335938 -3.382812 0.828125 -5.535156 0.828125 -8.390625 C 0.828125 -11.378906 1.320312 -13.570312 2.3125 -14.96875 C 3.3125 -16.363281 4.84375 -17.0625 6.90625 -17.0625 C 8.90625 -17.0625 10.414062 -16.332031 11.4375 -14.875 C 12.46875 -13.425781 12.984375 -11.265625 12.984375 -8.390625 Z M 5.34375 -8.390625 C 5.34375 -6.484375 5.460938 -5.171875 5.703125 -4.453125 C 5.941406 -3.742188 6.34375 -3.390625 6.90625 -3.390625 C 7.46875 -3.390625 7.863281 -3.757812 8.09375 -4.5 C 8.332031 -5.238281 8.453125 -6.535156 8.453125 -8.390625 C 8.453125 -10.253906 8.332031 -11.554688 8.09375 -12.296875 C 7.863281 -13.046875 7.46875 -13.421875 6.90625 -13.421875 C 6.34375 -13.421875 5.941406 -13.0625 5.703125 -12.34375 C 5.460938 -11.625 5.34375 -10.304688 5.34375 -8.390625 Z M 5.34375 -8.390625 "/></g></g></g><g fill="#ff7300" fill-opacity="1"><g transform="translate(148.271726, 251.875184)"><g><path d="M 3.9375 0 L 0.703125 0 L 0.703125 -5.609375 L 3.9375 -5.609375 L 3.9375 -4.640625 L 1.890625 -4.640625 L 1.890625 -3.40625 L 3.796875 -3.40625 L 3.796875 -2.421875 L 1.890625 -2.421875 L 1.890625 -0.984375 L 3.9375 -0.984375 Z M 3.9375 0 "/></g></g></g><g fill="#ff7300" fill-opacity="1"><g transform="translate(156.676827, 251.875184)"><g><path d="M 3.078125 0 L 1.734375 -4.40625 L 1.703125 -4.40625 C 1.742188 -3.507812 1.765625 -2.910156 1.765625 -2.609375 L 1.765625 0 L 0.703125 0 L 0.703125 -5.609375 L 2.328125 -5.609375 L 3.65625 -1.3125 L 3.671875 -1.3125 L 5.078125 -5.609375 L 6.703125 -5.609375 L 6.703125 0 L 5.59375 0 L 5.59375 -2.65625 C 5.59375 -2.78125 5.59375 -2.921875 5.59375 -3.078125 C 5.601562 -3.242188 5.625 -3.679688 5.65625 -4.390625 L 5.625 -4.390625 L 4.171875 0 Z M 3.078125 0 "/></g></g></g><g fill="#ff7300" fill-opacity="1"><g transform="translate(168.088843, 251.875184)"><g><path d="M 4.140625 0 L 3.734375 -1.328125 L 1.6875 -1.328125 L 1.28125 0 L 0 0 L 1.984375 -5.640625 L 3.4375 -5.640625 L 5.421875 0 Z M 3.453125 -2.328125 C 3.078125 -3.535156 2.863281 -4.21875 2.8125 -4.375 C 2.769531 -4.539062 2.738281 -4.671875 2.71875 -4.765625 C 2.632812 -4.429688 2.390625 -3.617188 1.984375 -2.328125 Z M 3.453125 -2.328125 "/></g></g></g><g fill="#ff7300" fill-opacity="1"><g transform="translate(177.514147, 251.875184)"><g><path d="M 2.84375 -3.15625 L 5.0625 -3.15625 L 5.0625 -0.234375 C 4.695312 -0.117188 4.351562 -0.0390625 4.03125 0 C 3.71875 0.0507812 3.394531 0.078125 3.0625 0.078125 C 2.21875 0.078125 1.570312 -0.171875 1.125 -0.671875 C 0.675781 -1.171875 0.453125 -1.882812 0.453125 -2.8125 C 0.453125 -3.71875 0.710938 -4.421875 1.234375 -4.921875 C 1.753906 -5.429688 2.472656 -5.6875 3.390625 -5.6875 C 3.960938 -5.6875 4.515625 -5.570312 5.046875 -5.34375 L 4.65625 -4.390625 C 4.25 -4.597656 3.820312 -4.703125 3.375 -4.703125 C 2.863281 -4.703125 2.453125 -4.53125 2.140625 -4.1875 C 1.835938 -3.84375 1.6875 -3.378906 1.6875 -2.796875 C 1.6875 -2.179688 1.804688 -1.710938 2.046875 -1.390625 C 2.296875 -1.066406 2.660156 -0.90625 3.140625 -0.90625 C 3.390625 -0.90625 3.644531 -0.929688 3.90625 -0.984375 L 3.90625 -2.15625 L 2.84375 -2.15625 Z M 2.84375 -3.15625 "/></g></g></g><g fill="#ff7300" fill-opacity="1"><g transform="translate(187.207925, 251.875184)"><g><path d="M 1.890625 -3.125 L 2.28125 -3.125 C 2.65625 -3.125 2.929688 -3.1875 3.109375 -3.3125 C 3.285156 -3.4375 3.375 -3.632812 3.375 -3.90625 C 3.375 -4.164062 3.28125 -4.351562 3.09375 -4.46875 C 2.914062 -4.582031 2.632812 -4.640625 2.25 -4.640625 L 1.890625 -4.640625 Z M 1.890625 -2.15625 L 1.890625 0 L 0.703125 0 L 0.703125 -5.609375 L 2.34375 -5.609375 C 3.101562 -5.609375 3.664062 -5.46875 4.03125 -5.1875 C 4.394531 -4.914062 4.578125 -4.5 4.578125 -3.9375 C 4.578125 -3.601562 4.484375 -3.304688 4.296875 -3.046875 C 4.117188 -2.785156 3.863281 -2.582031 3.53125 -2.4375 C 4.375 -1.175781 4.925781 -0.363281 5.1875 0 L 3.875 0 L 2.53125 -2.15625 Z M 1.890625 -2.15625 "/></g></g></g><g fill="#ff7300" fill-opacity="1"><g transform="translate(196.399275, 251.875184)"><g><path d="M 3.9375 0 L 0.703125 0 L 0.703125 -5.609375 L 3.9375 -5.609375 L 3.9375 -4.640625 L 1.890625 -4.640625 L 1.890625 -3.40625 L 3.796875 -3.40625 L 3.796875 -2.421875 L 1.890625 -2.421875 L 1.890625 -0.984375 L 3.9375 -0.984375 Z M 3.9375 0 "/></g></g></g><g fill="#ff7300" fill-opacity="1"><g transform="translate(204.804377, 251.875184)"><g><path d="M 3.09375 -4.703125 C 2.644531 -4.703125 2.296875 -4.53125 2.046875 -4.1875 C 1.804688 -3.851562 1.6875 -3.390625 1.6875 -2.796875 C 1.6875 -1.535156 2.15625 -0.90625 3.09375 -0.90625 C 3.488281 -0.90625 3.960938 -1.003906 4.515625 -1.203125 L 4.515625 -0.21875 C 4.054688 -0.0195312 3.546875 0.078125 2.984375 0.078125 C 2.160156 0.078125 1.53125 -0.164062 1.09375 -0.65625 C 0.664062 -1.15625 0.453125 -1.867188 0.453125 -2.796875 C 0.453125 -3.378906 0.554688 -3.890625 0.765625 -4.328125 C 0.984375 -4.765625 1.289062 -5.097656 1.6875 -5.328125 C 2.082031 -5.566406 2.550781 -5.6875 3.09375 -5.6875 C 3.632812 -5.6875 4.179688 -5.554688 4.734375 -5.296875 L 4.34375 -4.328125 C 4.132812 -4.429688 3.921875 -4.519531 3.703125 -4.59375 C 3.492188 -4.664062 3.289062 -4.703125 3.09375 -4.703125 Z M 3.09375 -4.703125 "/></g></g></g><g fill="#ff7300" fill-opacity="1"><g transform="translate(213.815465, 251.875184)"><g><path d="M 3.9375 0 L 0.703125 0 L 0.703125 -5.609375 L 3.9375 -5.609375 L 3.9375 -4.640625 L 1.890625 -4.640625 L 1.890625 -3.40625 L 3.796875 -3.40625 L 3.796875 -2.421875 L 1.890625 -2.421875 L 1.890625 -0.984375 L 3.9375 -0.984375 Z M 3.9375 0 "/></g></g></g><g fill="#ff7300" fill-opacity="1"><g transform="translate(222.220567, 251.875184)"><g><path d="M 1.890625 -3.125 L 2.28125 -3.125 C 2.65625 -3.125 2.929688 -3.1875 3.109375 -3.3125 C 3.285156 -3.4375 3.375 -3.632812 3.375 -3.90625 C 3.375 -4.164062 3.28125 -4.351562 3.09375 -4.46875 C 2.914062 -4.582031 2.632812 -4.640625 2.25 -4.640625 L 1.890625 -4.640625 Z M 1.890625 -2.15625 L 1.890625 0 L 0.703125 0 L 0.703125 -5.609375 L 2.34375 -5.609375 C 3.101562 -5.609375 3.664062 -5.46875 4.03125 -5.1875 C 4.394531 -4.914062 4.578125 -4.5 4.578125 -3.9375 C 4.578125 -3.601562 4.484375 -3.304688 4.296875 -3.046875 C 4.117188 -2.785156 3.863281 -2.582031 3.53125 -2.4375 C 4.375 -1.175781 4.925781 -0.363281 5.1875 0 L 3.875 0 L 2.53125 -2.15625 Z M 1.890625 -2.15625 "/></g></g></g><g fill="#ff7300" fill-opacity="1"><g transform="translate(153.385531, 262.348255)"><g><path d="M 4.015625 -1.5625 C 4.015625 -1.050781 3.832031 -0.648438 3.46875 -0.359375 C 3.101562 -0.0664062 2.597656 0.078125 1.953125 0.078125 C 1.347656 0.078125 0.816406 -0.0351562 0.359375 -0.265625 L 0.359375 -1.359375 C 0.734375 -1.191406 1.050781 -1.070312 1.3125 -1 C 1.582031 -0.9375 1.828125 -0.90625 2.046875 -0.90625 C 2.304688 -0.90625 2.503906 -0.953125 2.640625 -1.046875 C 2.773438 -1.148438 2.84375 -1.300781 2.84375 -1.5 C 2.84375 -1.613281 2.8125 -1.710938 2.75 -1.796875 C 2.695312 -1.878906 2.609375 -1.957031 2.484375 -2.03125 C 2.367188 -2.113281 2.128906 -2.242188 1.765625 -2.421875 C 1.421875 -2.578125 1.160156 -2.726562 0.984375 -2.875 C 0.816406 -3.03125 0.679688 -3.207031 0.578125 -3.40625 C 0.472656 -3.601562 0.421875 -3.832031 0.421875 -4.09375 C 0.421875 -4.59375 0.585938 -4.984375 0.921875 -5.265625 C 1.265625 -5.546875 1.734375 -5.6875 2.328125 -5.6875 C 2.617188 -5.6875 2.894531 -5.648438 3.15625 -5.578125 C 3.425781 -5.515625 3.703125 -5.421875 3.984375 -5.296875 L 3.609375 -4.375 C 3.304688 -4.5 3.054688 -4.582031 2.859375 -4.625 C 2.671875 -4.675781 2.476562 -4.703125 2.28125 -4.703125 C 2.0625 -4.703125 1.890625 -4.648438 1.765625 -4.546875 C 1.648438 -4.441406 1.59375 -4.304688 1.59375 -4.140625 C 1.59375 -4.023438 1.613281 -3.925781 1.65625 -3.84375 C 1.707031 -3.769531 1.785156 -3.695312 1.890625 -3.625 C 1.992188 -3.550781 2.242188 -3.421875 2.640625 -3.234375 C 3.171875 -2.984375 3.53125 -2.734375 3.71875 -2.484375 C 3.914062 -2.234375 4.015625 -1.925781 4.015625 -1.5625 Z M 4.015625 -1.5625 "/></g></g></g><g fill="#ff7300" fill-opacity="1"><g transform="translate(161.717759, 262.348255)"><g><path d="M 4.140625 0 L 3.734375 -1.328125 L 1.6875 -1.328125 L 1.28125 0 L 0 0 L 1.984375 -5.640625 L 3.4375 -5.640625 L 5.421875 0 Z M 3.453125 -2.328125 C 3.078125 -3.535156 2.863281 -4.21875 2.8125 -4.375 C 2.769531 -4.539062 2.738281 -4.671875 2.71875 -4.765625 C 2.632812 -4.429688 2.390625 -3.617188 1.984375 -2.328125 Z M 3.453125 -2.328125 "/></g></g></g><g fill="#ff7300" fill-opacity="1"><g transform="translate(171.143064, 262.348255)"><g><path d="M 5.265625 -5.609375 L 5.265625 -1.984375 C 5.265625 -1.566406 5.171875 -1.203125 4.984375 -0.890625 C 4.804688 -0.578125 4.539062 -0.335938 4.1875 -0.171875 C 3.84375 -0.00390625 3.429688 0.078125 2.953125 0.078125 C 2.222656 0.078125 1.660156 -0.101562 1.265625 -0.46875 C 0.867188 -0.84375 0.671875 -1.351562 0.671875 -2 L 0.671875 -5.609375 L 1.859375 -5.609375 L 1.859375 -2.171875 C 1.859375 -1.742188 1.941406 -1.425781 2.109375 -1.21875 C 2.285156 -1.019531 2.578125 -0.921875 2.984375 -0.921875 C 3.367188 -0.921875 3.648438 -1.019531 3.828125 -1.21875 C 4.003906 -1.425781 4.09375 -1.75 4.09375 -2.1875 L 4.09375 -5.609375 Z M 5.265625 -5.609375 "/></g></g></g><g fill="#ff7300" fill-opacity="1"><g transform="translate(181.086141, 262.348255)"><g><path d="M 5.359375 -2.859375 C 5.359375 -1.929688 5.09375 -1.222656 4.5625 -0.734375 C 4.039062 -0.242188 3.285156 0 2.296875 0 L 0.703125 0 L 0.703125 -5.609375 L 2.46875 -5.609375 C 3.382812 -5.609375 4.09375 -5.363281 4.59375 -4.875 C 5.101562 -4.394531 5.359375 -3.722656 5.359375 -2.859375 Z M 4.125 -2.828125 C 4.125 -4.035156 3.59375 -4.640625 2.53125 -4.640625 L 1.890625 -4.640625 L 1.890625 -0.984375 L 2.40625 -0.984375 C 3.550781 -0.984375 4.125 -1.597656 4.125 -2.828125 Z M 4.125 -2.828125 "/></g></g></g><g fill="#ff7300" fill-opacity="1"><g transform="translate(190.906486, 262.348255)"><g><path d="M 4.140625 0 L 3.734375 -1.328125 L 1.6875 -1.328125 L 1.28125 0 L 0 0 L 1.984375 -5.640625 L 3.4375 -5.640625 L 5.421875 0 Z M 3.453125 -2.328125 C 3.078125 -3.535156 2.863281 -4.21875 2.8125 -4.375 C 2.769531 -4.539062 2.738281 -4.671875 2.71875 -4.765625 C 2.632812 -4.429688 2.390625 -3.617188 1.984375 -2.328125 Z M 2.078125 -6.0625 L 2.078125 -6.15625 C 2.515625 -6.675781 2.8125 -7.0625 2.96875 -7.3125 L 4.28125 -7.3125 L 4.28125 -7.234375 C 4.144531 -7.097656 3.914062 -6.898438 3.59375 -6.640625 C 3.28125 -6.378906 3.03125 -6.1875 2.84375 -6.0625 Z M 2.078125 -6.0625 "/></g></g></g><g fill="#ff7300" fill-opacity="1"><g transform="translate(200.33179, 262.348255)"><g><path d="M 3.90625 -5.609375 L 5.109375 -5.609375 L 3.203125 0 L 1.90625 0 L 0 -5.609375 L 1.203125 -5.609375 L 2.25 -2.265625 C 2.3125 -2.066406 2.375 -1.835938 2.4375 -1.578125 C 2.5 -1.316406 2.539062 -1.132812 2.5625 -1.03125 C 2.582031 -1.269531 2.675781 -1.679688 2.84375 -2.265625 Z M 3.90625 -5.609375 "/></g></g></g><g fill="#ff7300" fill-opacity="1"><g transform="translate(209.442597, 262.348255)"><g><path d="M 3.9375 0 L 0.703125 0 L 0.703125 -5.609375 L 3.9375 -5.609375 L 3.9375 -4.640625 L 1.890625 -4.640625 L 1.890625 -3.40625 L 3.796875 -3.40625 L 3.796875 -2.421875 L 1.890625 -2.421875 L 1.890625 -0.984375 L 3.9375 -0.984375 Z M 3.9375 0 "/></g></g></g><g fill="#ff7300" fill-opacity="1"><g transform="translate(217.847699, 262.348255)"><g><path d="M 0.703125 0 L 0.703125 -5.609375 L 1.890625 -5.609375 L 1.890625 -0.984375 L 4.171875 -0.984375 L 4.171875 0 Z M 0.703125 0 "/></g></g></g></svg>